<svg width="15" height="13" viewBox="0 0 15 13" fill="none" xmlns="http://www.w3.org/2000/svg">
<path d="M13.7499 9.16497V10.79C13.7506 10.9408 13.7149 11.0901 13.6452 11.2284C13.5755 11.3666 13.4732 11.4907 13.3449 11.5926C13.2167 11.6946 13.0653 11.7723 12.9004 11.8206C12.7355 11.8689 12.5608 11.8869 12.3874 11.8733C10.4642 11.6922 8.61677 11.1226 6.99365 10.2104C5.48354 9.37875 4.20323 8.26915 3.24365 6.96039C2.18738 5.54729 1.53005 3.93843 1.3249 2.26414C1.30928 2.11435 1.32982 1.96338 1.38521 1.82085C1.4406 1.67832 1.52963 1.54734 1.64663 1.43627C1.76362 1.32519 1.90603 1.23644 2.06477 1.17567C2.22351 1.1149 2.39511 1.08345 2.56865 1.0833H4.44365C4.74696 1.08072 5.04102 1.17381 5.271 1.34522C5.50098 1.51663 5.65119 1.75467 5.69365 2.01497C5.77279 2.53501 5.91955 3.04561 6.13115 3.53705C6.21524 3.73093 6.23344 3.94163 6.18359 4.1442C6.13374 4.34676 6.01794 4.5327 5.8499 4.67997L5.05615 5.36789C5.94587 6.72397 7.24143 7.84679 8.80615 8.61789L9.5999 7.92997C9.76983 7.78434 9.98437 7.68397 10.2181 7.64077C10.4518 7.59757 10.6949 7.61334 10.9186 7.68622C11.4857 7.8696 12.0749 7.9968 12.6749 8.06539C12.9785 8.10251 13.2558 8.23504 13.454 8.43778C13.6522 8.64052 13.7575 8.89932 13.7499 9.16497Z" stroke="#2B6078" stroke-linecap="round" stroke-linejoin="round"/>
</svg>
